<mxfile host="app.diagrams.net" modified="2024-12-17T09:51:03.985Z" agent="5.0 (Macintosh; Intel Mac OS X 10_15_7) AppleWebKit/537.36 (KHTML, like Gecko) Chrome/131.0.0.0 Safari/537.36" version="20.8.4" etag="NTObFEwXjaohJB-f1h5k" type="github">
  <diagram id="t5xh7eePGvHaFhXk-E6r" name="Page-1">
    <mxGraphModel dx="2522" dy="1380" grid="1" gridSize="10" guides="1" tooltips="1" connect="1" arrows="1" fold="1" page="1" pageScale="1" pageWidth="827" pageHeight="1169" math="0" shadow="0">
      <root>
        <mxCell id="0" />
        <mxCell id="1" parent="0" />
        <mxCell id="S7atagdqyIi2SJvI3LHc-22" value="&lt;blockquote style=&quot;margin: 0 0 0 40px; border: none; padding: 0px;&quot;&gt;&lt;blockquote style=&quot;margin: 0 0 0 40px; border: none; padding: 0px;&quot;&gt;&lt;h1&gt;C2&lt;/h1&gt;&lt;/blockquote&gt;&lt;/blockquote&gt;&lt;blockquote style=&quot;margin: 0 0 0 40px; border: none; padding: 0px;&quot;&gt;&lt;h1&gt;&lt;/h1&gt;&lt;/blockquote&gt;&lt;h1&gt;&lt;/h1&gt;" style="rounded=0;whiteSpace=wrap;html=1;align=right;verticalAlign=bottom;fontColor=default;labelBackgroundColor=none;" vertex="1" parent="1">
          <mxGeometry x="870" y="450" width="760" height="480" as="geometry" />
        </mxCell>
        <mxCell id="S7atagdqyIi2SJvI3LHc-30" style="edgeStyle=orthogonalEdgeStyle;rounded=0;orthogonalLoop=1;jettySize=auto;html=1;exitX=1;exitY=0.5;exitDx=0;exitDy=0;entryX=0;entryY=0.5;entryDx=0;entryDy=0;" edge="1" parent="1" source="S7atagdqyIi2SJvI3LHc-23" target="S7atagdqyIi2SJvI3LHc-28">
          <mxGeometry relative="1" as="geometry" />
        </mxCell>
        <mxCell id="S7atagdqyIi2SJvI3LHc-36" style="edgeStyle=orthogonalEdgeStyle;rounded=0;orthogonalLoop=1;jettySize=auto;html=1;exitX=0;exitY=0.5;exitDx=0;exitDy=0;entryX=0.5;entryY=0;entryDx=0;entryDy=0;" edge="1" parent="1" source="S7atagdqyIi2SJvI3LHc-23" target="S7atagdqyIi2SJvI3LHc-27">
          <mxGeometry relative="1" as="geometry" />
        </mxCell>
        <mxCell id="S7atagdqyIi2SJvI3LHc-37" value="Comunicates with db" style="edgeLabel;html=1;align=center;verticalAlign=middle;resizable=0;points=[];" vertex="1" connectable="0" parent="S7atagdqyIi2SJvI3LHc-36">
          <mxGeometry x="-0.0476" y="-1" relative="1" as="geometry">
            <mxPoint as="offset" />
          </mxGeometry>
        </mxCell>
        <mxCell id="S7atagdqyIi2SJvI3LHc-38" value="Serves data for frontend" style="edgeStyle=orthogonalEdgeStyle;rounded=0;orthogonalLoop=1;jettySize=auto;html=1;exitX=0.5;exitY=1;exitDx=0;exitDy=0;" edge="1" parent="1" source="S7atagdqyIi2SJvI3LHc-23" target="S7atagdqyIi2SJvI3LHc-26">
          <mxGeometry relative="1" as="geometry" />
        </mxCell>
        <mxCell id="S7atagdqyIi2SJvI3LHc-23" value="Backend&lt;br&gt;(Java 21 + Spring boot)" style="rounded=0;whiteSpace=wrap;html=1;" vertex="1" parent="1">
          <mxGeometry x="1150" y="610" width="120" height="60" as="geometry" />
        </mxCell>
        <mxCell id="S7atagdqyIi2SJvI3LHc-25" value="" style="group;movable=0;resizable=0;rotatable=0;deletable=0;editable=0;connectable=0;" vertex="1" connectable="0" parent="1">
          <mxGeometry x="20" y="10" width="780" height="600" as="geometry" />
        </mxCell>
        <mxCell id="S7atagdqyIi2SJvI3LHc-21" value="&lt;blockquote style=&quot;margin: 0 0 0 40px; border: none; padding: 0px;&quot;&gt;&lt;blockquote style=&quot;margin: 0 0 0 40px; border: none; padding: 0px;&quot;&gt;&lt;h1&gt;C1&lt;/h1&gt;&lt;/blockquote&gt;&lt;/blockquote&gt;&lt;blockquote style=&quot;margin: 0 0 0 40px; border: none; padding: 0px;&quot;&gt;&lt;h1&gt;&lt;/h1&gt;&lt;/blockquote&gt;&lt;h1&gt;&lt;/h1&gt;" style="rounded=0;whiteSpace=wrap;html=1;align=right;verticalAlign=bottom;labelBackgroundColor=default;movable=0;resizable=0;rotatable=0;deletable=0;editable=0;connectable=0;" vertex="1" parent="S7atagdqyIi2SJvI3LHc-25">
          <mxGeometry width="780" height="600" as="geometry" />
        </mxCell>
        <mxCell id="S7atagdqyIi2SJvI3LHc-1" value="Patient" style="shape=umlActor;verticalLabelPosition=bottom;verticalAlign=top;html=1;outlineConnect=0;" vertex="1" parent="S7atagdqyIi2SJvI3LHc-25">
          <mxGeometry x="280" y="30" width="30" height="60" as="geometry" />
        </mxCell>
        <mxCell id="S7atagdqyIi2SJvI3LHc-2" value="Healthcare Providers" style="shape=umlActor;verticalLabelPosition=bottom;verticalAlign=top;html=1;outlineConnect=0;" vertex="1" parent="S7atagdqyIi2SJvI3LHc-25">
          <mxGeometry x="50" y="240" width="30" height="60" as="geometry" />
        </mxCell>
        <mxCell id="S7atagdqyIi2SJvI3LHc-4" value="Scientists" style="shape=umlActor;verticalLabelPosition=bottom;verticalAlign=top;html=1;outlineConnect=0;" vertex="1" parent="S7atagdqyIi2SJvI3LHc-25">
          <mxGeometry x="670" y="320" width="30" height="60" as="geometry" />
        </mxCell>
        <mxCell id="S7atagdqyIi2SJvI3LHc-6" value="Wearable device" style="rounded=0;whiteSpace=wrap;html=1;" vertex="1" parent="S7atagdqyIi2SJvI3LHc-25">
          <mxGeometry x="320" y="160" width="120" height="60" as="geometry" />
        </mxCell>
        <mxCell id="S7atagdqyIi2SJvI3LHc-7" value="&lt;p style=&quot;margin: 0px; font-variant-numeric: normal; font-variant-east-asian: normal; font-variant-alternates: normal; font-size-adjust: none; font-kerning: auto; font-optical-sizing: auto; font-feature-settings: normal; font-variation-settings: normal; font-variant-position: normal; font-variant-emoji: normal; font-stretch: normal; font-size: 14px; line-height: normal; font-family: &amp;quot;.AppleSystemUIFont&amp;quot;; color: rgb(14, 14, 14); text-align: start;&quot; class=&quot;p1&quot;&gt;&lt;/p&gt;Use wearable devices (smartphones and smartwatches) to provide data&amp;nbsp;" style="edgeStyle=orthogonalEdgeStyle;rounded=0;orthogonalLoop=1;jettySize=auto;html=1;" edge="1" parent="S7atagdqyIi2SJvI3LHc-25" source="S7atagdqyIi2SJvI3LHc-1" target="S7atagdqyIi2SJvI3LHc-6">
          <mxGeometry x="0.0588" y="120" relative="1" as="geometry">
            <mxPoint as="offset" />
          </mxGeometry>
        </mxCell>
        <mxCell id="S7atagdqyIi2SJvI3LHc-8" value="Data Integration Center" style="rounded=0;whiteSpace=wrap;html=1;" vertex="1" parent="S7atagdqyIi2SJvI3LHc-25">
          <mxGeometry x="320" y="320" width="120" height="60" as="geometry" />
        </mxCell>
        <mxCell id="S7atagdqyIi2SJvI3LHc-15" value="Analyze data give insights" style="edgeStyle=orthogonalEdgeStyle;rounded=0;orthogonalLoop=1;jettySize=auto;html=1;exitX=0;exitY=0.3333333333333333;exitDx=0;exitDy=0;exitPerimeter=0;entryX=1;entryY=0.5;entryDx=0;entryDy=0;" edge="1" parent="S7atagdqyIi2SJvI3LHc-25" source="S7atagdqyIi2SJvI3LHc-4" target="S7atagdqyIi2SJvI3LHc-8">
          <mxGeometry relative="1" as="geometry">
            <Array as="points">
              <mxPoint x="670" y="350" />
            </Array>
          </mxGeometry>
        </mxCell>
        <mxCell id="S7atagdqyIi2SJvI3LHc-9" value="Provide data" style="edgeStyle=orthogonalEdgeStyle;rounded=0;orthogonalLoop=1;jettySize=auto;html=1;exitX=0.5;exitY=1;exitDx=0;exitDy=0;entryX=0.5;entryY=0;entryDx=0;entryDy=0;" edge="1" parent="S7atagdqyIi2SJvI3LHc-25" source="S7atagdqyIi2SJvI3LHc-6" target="S7atagdqyIi2SJvI3LHc-8">
          <mxGeometry relative="1" as="geometry" />
        </mxCell>
        <mxCell id="S7atagdqyIi2SJvI3LHc-13" value="Get data to display patients results" style="edgeStyle=orthogonalEdgeStyle;rounded=0;orthogonalLoop=1;jettySize=auto;html=1;exitX=0.5;exitY=0;exitDx=0;exitDy=0;" edge="1" parent="S7atagdqyIi2SJvI3LHc-25" source="S7atagdqyIi2SJvI3LHc-12" target="S7atagdqyIi2SJvI3LHc-8">
          <mxGeometry relative="1" as="geometry" />
        </mxCell>
        <mxCell id="S7atagdqyIi2SJvI3LHc-12" value="Web platform" style="rounded=0;whiteSpace=wrap;html=1;" vertex="1" parent="S7atagdqyIi2SJvI3LHc-25">
          <mxGeometry x="320" y="450" width="120" height="60" as="geometry" />
        </mxCell>
        <mxCell id="S7atagdqyIi2SJvI3LHc-11" value="&lt;br&gt;&lt;p class=&quot;p1&quot;&gt;Access patient health insights via a web dashboard&lt;/p&gt;" style="edgeStyle=orthogonalEdgeStyle;rounded=0;orthogonalLoop=1;jettySize=auto;html=1;exitX=1;exitY=0.3333333333333333;exitDx=0;exitDy=0;exitPerimeter=0;entryX=0;entryY=0.5;entryDx=0;entryDy=0;" edge="1" parent="S7atagdqyIi2SJvI3LHc-25" source="S7atagdqyIi2SJvI3LHc-2" target="S7atagdqyIi2SJvI3LHc-12">
          <mxGeometry x="0.1739" y="-60" relative="1" as="geometry">
            <mxPoint as="offset" />
          </mxGeometry>
        </mxCell>
        <mxCell id="S7atagdqyIi2SJvI3LHc-26" value="Web platform&lt;br&gt;(React)" style="rounded=0;whiteSpace=wrap;html=1;" vertex="1" parent="1">
          <mxGeometry x="1150" y="780" width="120" height="60" as="geometry" />
        </mxCell>
        <mxCell id="S7atagdqyIi2SJvI3LHc-27" value="Database&lt;br&gt;(Postgres)" style="rounded=0;whiteSpace=wrap;html=1;" vertex="1" parent="1">
          <mxGeometry x="960" y="720" width="120" height="60" as="geometry" />
        </mxCell>
        <mxCell id="S7atagdqyIi2SJvI3LHc-28" value="Sovity connector" style="rounded=0;whiteSpace=wrap;html=1;" vertex="1" parent="1">
          <mxGeometry x="1370" y="610" width="120" height="60" as="geometry" />
        </mxCell>
        <mxCell id="S7atagdqyIi2SJvI3LHc-39" value="Pass data by rest API" style="edgeStyle=orthogonalEdgeStyle;rounded=0;orthogonalLoop=1;jettySize=auto;html=1;" edge="1" parent="1" source="S7atagdqyIi2SJvI3LHc-29" target="S7atagdqyIi2SJvI3LHc-23">
          <mxGeometry relative="1" as="geometry" />
        </mxCell>
        <mxCell id="S7atagdqyIi2SJvI3LHc-29" value="Mobile aps&lt;br&gt;(Ios Android)" style="rounded=0;whiteSpace=wrap;html=1;" vertex="1" parent="1">
          <mxGeometry x="1150" y="470" width="120" height="50" as="geometry" />
        </mxCell>
        <mxCell id="S7atagdqyIi2SJvI3LHc-35" style="edgeStyle=orthogonalEdgeStyle;rounded=0;orthogonalLoop=1;jettySize=auto;html=1;" edge="1" parent="1" source="S7atagdqyIi2SJvI3LHc-34" target="S7atagdqyIi2SJvI3LHc-28">
          <mxGeometry relative="1" as="geometry" />
        </mxCell>
        <mxCell id="S7atagdqyIi2SJvI3LHc-40" value="Access data by contract" style="edgeLabel;html=1;align=center;verticalAlign=middle;resizable=0;points=[];" vertex="1" connectable="0" parent="S7atagdqyIi2SJvI3LHc-35">
          <mxGeometry x="-0.1231" y="1" relative="1" as="geometry">
            <mxPoint x="1" y="-50" as="offset" />
          </mxGeometry>
        </mxCell>
        <mxCell id="S7atagdqyIi2SJvI3LHc-34" value="Actor" style="shape=umlActor;verticalLabelPosition=bottom;verticalAlign=top;html=1;outlineConnect=0;labelBackgroundColor=none;fillColor=default;strokeColor=default;" vertex="1" parent="1">
          <mxGeometry x="1510" y="780" width="30" height="60" as="geometry" />
        </mxCell>
        <mxCell id="S7atagdqyIi2SJvI3LHc-41" value="&amp;nbsp;Mediates data sharing between the Backend and external partners" style="edgeLabel;html=1;align=center;verticalAlign=middle;resizable=0;points=[];" vertex="1" connectable="0" parent="1">
          <mxGeometry x="1510" y="690" as="geometry">
            <mxPoint x="-62" y="-96" as="offset" />
          </mxGeometry>
        </mxCell>
      </root>
    </mxGraphModel>
  </diagram>
</mxfile>
